<?xml version="1.0" standalone="no"?>
<!DOCTYPE svg PUBLIC "-//W3C//DTD SVG 20010904//EN"
 "http://www.w3.org/TR/2001/REC-SVG-20010904/DTD/svg10.dtd">
<svg version="1.0" xmlns="http://www.w3.org/2000/svg"
 width="600.000000pt" height="600.000000pt" viewBox="0 0 600.000000 600.000000"
 preserveAspectRatio="xMidYMid meet">
<metadata>
Created by potrace 1.11, written by Peter Selinger 2001-2013
</metadata>
<g transform="translate(0.000000,600.000000) scale(0.100000,-0.100000)"
fill="#000000" stroke="none">
<path d="M3408 4521 c-54 -48 -135 -206 -150 -296 -13 -73 -29 -105 -83 -170
-23 -27 -53 -70 -65 -95 -32 -65 -57 -88 -128 -120 -62 -29 -110 -71 -416
-362 l-81 -77 45 11 c37 10 60 27 126 95 86 89 110 99 159 67 31 -21 50 -69
69 -189 19 -114 28 -126 109 -150 67 -20 98 -19 188 5 41 11 96 20 122 20 42
0 53 -5 90 -39 l42 -40 2 -173 c2 -95 3 -187 3 -204 0 -18 -10 -60 -22 -94
-23 -62 -24 -63 -78 -80 -203 -66 -377 -159 -502 -270 -54 -47 -58 -67 -32
-142 19 -58 129 -186 186 -218 24 -13 71 -43 105 -67 34 -24 90 -55 124 -68
124 -49 289 -163 289 -200 0 -27 -11 -36 -69 -59 -25 -10 -62 -31 -83 -47
l-37 -30 22 -45 c21 -43 24 -46 55 -40 19 3 55 19 81 35 31 20 79 37 137 50
49 10 116 30 149 44 33 14 103 35 155 47 90 20 98 24 150 74 30 29 78 69 105
89 28 19 66 52 85 72 19 20 73 67 119 103 54 42 96 85 119 121 19 31 96 114
169 185 74 71 141 142 149 158 22 42 19 128 -5 183 -11 26 -49 75 -84 110 -74
74 -244 188 -303 204 -26 7 -97 10 -180 7 -133 -4 -144 -6 -259 -47 -87 -31
-134 -43 -172 -42 -61 1 -156 27 -172 47 -22 26 -13 119 24 261 54 206 86 247
226 285 110 29 150 50 189 100 l33 42 -24 23 c-32 32 -236 97 -309 98 -81 3
-104 -7 -150 -65 -50 -64 -137 -133 -206 -164 -59 -26 -194 -54 -261 -54 -74
0 -123 36 -123 91 0 12 18 78 40 145 22 68 40 138 40 157 0 54 31 83 113 108
40 12 104 37 142 57 128 64 228 93 355 101 108 7 120 10 197 49 45 23 87 51
93 61 5 11 10 41 10 68 0 48 -1 48 -45 67 -25 10 -67 36 -93 57 -74 62 -172
117 -230 130 -29 6 -80 22 -112 35 -33 13 -68 24 -78 24 -11 0 -39 -18 -64
-39z m252 -151 c38 -19 38 -20 28 -57 -13 -50 -26 -63 -132 -139 -93 -67 -132
-78 -170 -51 -17 12 -12 21 63 120 118 154 136 165 211 127z m790 -1643 c35
-17 46 -28 48 -50 6 -47 -36 -189 -73 -249 -19 -31 -48 -88 -64 -126 -50 -125
-170 -273 -258 -320 -42 -22 -64 -41 -75 -65 -14 -29 -24 -36 -58 -42 -34 -6
-59 -22 -122 -81 -96 -88 -145 -114 -216 -114 -77 0 -81 15 -48 169 29 136 31
190 11 274 -11 49 -11 70 1 145 8 48 14 112 14 142 0 42 7 67 29 105 51 88 72
101 186 114 102 12 127 21 266 99 31 17 80 35 110 40 66 10 185 -10 249 -41z
m-1103 -345 c10 -64 6 -95 -18 -152 -24 -56 -33 -60 -140 -60 -94 0 -136 23
-158 87 -19 54 -7 68 60 76 32 4 83 23 142 55 51 27 95 47 99 45 4 -2 10 -25
15 -51z"/>
<path d="M1170 3982 c0 -24 41 -120 58 -134 9 -9 43 -25 75 -37 75 -27 154
-67 195 -98 24 -18 31 -30 27 -44 -4 -10 1 -54 9 -96 13 -63 14 -93 6 -158 -6
-44 -15 -174 -21 -290 -14 -306 -21 -354 -68 -500 -28 -84 -47 -166 -54 -231
-10 -84 -17 -108 -41 -142 -16 -23 -31 -42 -33 -42 -2 0 -15 8 -30 17 l-26 17
16 -30 c26 -50 29 -95 13 -174 -41 -201 -40 -261 6 -279 18 -8 26 -5 38 12 8
12 38 47 66 77 64 70 98 130 139 251 30 89 75 170 188 336 19 29 38 67 42 84
4 19 37 63 89 117 63 67 93 110 131 184 48 95 49 97 30 118 -10 11 -24 20 -32
20 -36 0 -97 -48 -193 -151 l-104 -112 -38 43 c-42 47 -45 64 -23 136 9 27 20
89 25 138 6 49 26 146 45 215 39 141 56 254 57 382 1 102 -26 173 -90 237 -56
56 -77 65 -232 100 -158 36 -270 50 -270 34z"/>
<path d="M2314 3258 c-172 -120 -224 -179 -224 -252 0 -22 3 -24 28 -16 55 16
63 23 112 99 28 43 70 92 94 111 44 32 130 140 113 140 -2 0 -58 -37 -123 -82z"/>
</g>
</svg>
